<mxfile host="app.diagrams.net" modified="2024-01-27T17:41:53.432Z" agent="Mozilla/5.0 (Macintosh; Intel Mac OS X 10_15_7) AppleWebKit/537.36 (KHTML, like Gecko) Chrome/120.0.0.0 Safari/537.36" etag="f-qlGIq9ONKeWWsKf2lr" version="23.0.2" type="github">
  <diagram id="yPxyJZ8AM_hMuL3Unpa9" name="gitflow">
    <mxGraphModel dx="927" dy="636" grid="1" gridSize="10" guides="1" tooltips="1" connect="1" arrows="1" fold="1" page="1" pageScale="1" pageWidth="1169" pageHeight="827" math="0" shadow="0">
      <root>
        <mxCell id="0" />
        <mxCell id="1" parent="0" />
        <mxCell id="MACJduqAwnRSim6QQRTF-177" value="homepage" style="html=1;whiteSpace=wrap;" vertex="1" parent="1">
          <mxGeometry x="160" y="220" width="110" height="50" as="geometry" />
        </mxCell>
        <mxCell id="MACJduqAwnRSim6QQRTF-185" value="user authentication" style="whiteSpace=wrap;html=1;" vertex="1" parent="1">
          <mxGeometry x="380" y="165" width="120" height="60" as="geometry" />
        </mxCell>
        <mxCell id="MACJduqAwnRSim6QQRTF-195" value="" style="edgeStyle=orthogonalEdgeStyle;rounded=0;orthogonalLoop=1;jettySize=auto;html=1;" edge="1" parent="1" source="MACJduqAwnRSim6QQRTF-192" target="MACJduqAwnRSim6QQRTF-194">
          <mxGeometry relative="1" as="geometry" />
        </mxCell>
        <mxCell id="MACJduqAwnRSim6QQRTF-192" value="complete profile" style="whiteSpace=wrap;html=1;" vertex="1" parent="1">
          <mxGeometry x="528" y="417" width="120" height="60" as="geometry" />
        </mxCell>
        <mxCell id="MACJduqAwnRSim6QQRTF-194" value="user profile" style="whiteSpace=wrap;html=1;" vertex="1" parent="1">
          <mxGeometry x="528" y="280" width="120" height="60" as="geometry" />
        </mxCell>
        <mxCell id="MACJduqAwnRSim6QQRTF-199" value="registration (email)" style="html=1;verticalAlign=bottom;labelBackgroundColor=none;endArrow=open;endFill=0;dashed=1;rounded=0;exitX=0.5;exitY=1;exitDx=0;exitDy=0;entryX=0.69;entryY=0.013;entryDx=0;entryDy=0;edgeStyle=orthogonalEdgeStyle;curved=1;entryPerimeter=0;" edge="1" parent="1" source="MACJduqAwnRSim6QQRTF-177" target="MACJduqAwnRSim6QQRTF-200">
          <mxGeometry x="0.0932" y="7" width="160" relative="1" as="geometry">
            <mxPoint x="370" y="285" as="sourcePoint" />
            <mxPoint x="370" y="375" as="targetPoint" />
            <mxPoint as="offset" />
          </mxGeometry>
        </mxCell>
        <mxCell id="MACJduqAwnRSim6QQRTF-200" value="gmail service" style="shape=umlFrame;whiteSpace=wrap;html=1;pointerEvents=0;recursiveResize=0;container=1;collapsible=0;width=170;" vertex="1" parent="1">
          <mxGeometry x="150" y="383" width="290" height="133" as="geometry" />
        </mxCell>
        <mxCell id="MACJduqAwnRSim6QQRTF-201" value="token for new user" style="text;html=1;" vertex="1" parent="MACJduqAwnRSim6QQRTF-200">
          <mxGeometry width="100" height="20" relative="1" as="geometry">
            <mxPoint x="177" y="96" as="offset" />
          </mxGeometry>
        </mxCell>
        <mxCell id="MACJduqAwnRSim6QQRTF-202" value="password" style="shape=note2;boundedLbl=1;whiteSpace=wrap;html=1;size=25;verticalAlign=top;align=left;spacingLeft=10;" vertex="1" parent="MACJduqAwnRSim6QQRTF-200">
          <mxGeometry width="107" height="48" relative="1" as="geometry">
            <mxPoint x="11" y="50" as="offset" />
          </mxGeometry>
        </mxCell>
        <mxCell id="MACJduqAwnRSim6QQRTF-203" value="login" style="html=1;verticalAlign=bottom;labelBackgroundColor=none;endArrow=open;endFill=0;rounded=0;exitX=1;exitY=0.5;exitDx=0;exitDy=0;entryX=0;entryY=0.5;entryDx=0;entryDy=0;edgeStyle=orthogonalEdgeStyle;" edge="1" parent="1" source="MACJduqAwnRSim6QQRTF-177" target="MACJduqAwnRSim6QQRTF-185">
          <mxGeometry x="-0.6253" y="5" width="160" relative="1" as="geometry">
            <mxPoint x="380" y="430" as="sourcePoint" />
            <mxPoint x="540" y="430" as="targetPoint" />
            <mxPoint x="1" as="offset" />
          </mxGeometry>
        </mxCell>
        <mxCell id="MACJduqAwnRSim6QQRTF-204" value="MySQL&amp;nbsp;" style="shape=umlFrame;whiteSpace=wrap;html=1;pointerEvents=0;recursiveResize=0;container=1;collapsible=0;width=50;" vertex="1" parent="1">
          <mxGeometry x="480" y="560" width="260" height="120" as="geometry" />
        </mxCell>
        <mxCell id="MACJduqAwnRSim6QQRTF-209" value="token for new user" style="text;html=1;" vertex="1" parent="MACJduqAwnRSim6QQRTF-204">
          <mxGeometry x="245" y="652.5" width="100" height="20" relative="1" as="geometry">
            <mxPoint x="490" y="650" as="offset" />
          </mxGeometry>
        </mxCell>
        <mxCell id="MACJduqAwnRSim6QQRTF-206" value="DB" style="shape=trapezoid;perimeter=trapezoidPerimeter;whiteSpace=wrap;html=1;fixedSize=1;" vertex="1" parent="1">
          <mxGeometry x="550" y="600" width="120" height="60" as="geometry" />
        </mxCell>
        <mxCell id="MACJduqAwnRSim6QQRTF-211" value="save" style="html=1;verticalAlign=bottom;labelBackgroundColor=none;endArrow=open;endFill=0;dashed=1;rounded=0;exitX=0.5;exitY=1;exitDx=0;exitDy=0;entryX=0.004;entryY=0.658;entryDx=0;entryDy=0;entryPerimeter=0;edgeStyle=orthogonalEdgeStyle;elbow=vertical;curved=1;" edge="1" parent="1" source="MACJduqAwnRSim6QQRTF-201" target="MACJduqAwnRSim6QQRTF-204">
          <mxGeometry width="160" relative="1" as="geometry">
            <mxPoint x="460" y="390" as="sourcePoint" />
            <mxPoint x="620" y="390" as="targetPoint" />
            <Array as="points">
              <mxPoint x="380" y="499" />
              <mxPoint x="380" y="639" />
            </Array>
          </mxGeometry>
        </mxCell>
        <mxCell id="MACJduqAwnRSim6QQRTF-212" value="" style="endArrow=open;startArrow=none;endFill=0;startFill=0;endSize=8;html=1;verticalAlign=bottom;labelBackgroundColor=none;strokeWidth=1;rounded=0;exitX=0.996;exitY=0.48;exitDx=0;exitDy=0;exitPerimeter=0;entryX=0;entryY=0.5;entryDx=0;entryDy=0;" edge="1" parent="1" source="MACJduqAwnRSim6QQRTF-200" target="MACJduqAwnRSim6QQRTF-192">
          <mxGeometry width="160" relative="1" as="geometry">
            <mxPoint x="460" y="390" as="sourcePoint" />
            <mxPoint x="620" y="390" as="targetPoint" />
          </mxGeometry>
        </mxCell>
        <mxCell id="MACJduqAwnRSim6QQRTF-213" value="" style="html=1;verticalAlign=bottom;labelBackgroundColor=none;endArrow=open;endFill=0;dashed=1;rounded=0;exitX=0.25;exitY=1;exitDx=0;exitDy=0;entryX=0.299;entryY=0.01;entryDx=0;entryDy=0;entryPerimeter=0;" edge="1" parent="1">
          <mxGeometry width="160" relative="1" as="geometry">
            <mxPoint x="578" y="477" as="sourcePoint" />
            <mxPoint x="577.74" y="561.2" as="targetPoint" />
          </mxGeometry>
        </mxCell>
        <mxCell id="MACJduqAwnRSim6QQRTF-214" value="" style="html=1;verticalAlign=bottom;labelBackgroundColor=none;endArrow=open;endFill=0;dashed=1;rounded=0;exitX=0.529;exitY=0.001;exitDx=0;exitDy=0;entryX=0.75;entryY=1;entryDx=0;entryDy=0;exitPerimeter=0;" edge="1" parent="1">
          <mxGeometry width="160" relative="1" as="geometry">
            <mxPoint x="607.5400000000002" y="560.1200000000001" as="sourcePoint" />
            <mxPoint x="608" y="477" as="targetPoint" />
          </mxGeometry>
        </mxCell>
        <mxCell id="MACJduqAwnRSim6QQRTF-215" value="" style="edgeStyle=orthogonalEdgeStyle;rounded=0;orthogonalLoop=1;jettySize=auto;html=1;exitX=1;exitY=0.5;exitDx=0;exitDy=0;entryX=0.5;entryY=0;entryDx=0;entryDy=0;" edge="1" parent="1" source="MACJduqAwnRSim6QQRTF-185" target="MACJduqAwnRSim6QQRTF-194">
          <mxGeometry relative="1" as="geometry">
            <mxPoint x="658" y="457" as="sourcePoint" />
            <mxPoint x="740" y="350" as="targetPoint" />
          </mxGeometry>
        </mxCell>
        <mxCell id="MACJduqAwnRSim6QQRTF-217" value="competition questions" style="shape=umlFrame;whiteSpace=wrap;html=1;pointerEvents=0;recursiveResize=0;container=1;collapsible=0;width=170;" vertex="1" parent="1">
          <mxGeometry x="724" y="240" width="210" height="250" as="geometry" />
        </mxCell>
        <mxCell id="MACJduqAwnRSim6QQRTF-218" value="questions" style="text;html=1;" vertex="1" parent="MACJduqAwnRSim6QQRTF-217">
          <mxGeometry width="100" height="20" relative="1" as="geometry">
            <mxPoint x="20" y="40" as="offset" />
          </mxGeometry>
        </mxCell>
        <mxCell id="MACJduqAwnRSim6QQRTF-219" value="answers" style="line;strokeWidth=1;dashed=1;labelPosition=center;verticalLabelPosition=bottom;align=left;verticalAlign=top;spacingLeft=20;spacingTop=15;html=1;whiteSpace=wrap;" vertex="1" parent="MACJduqAwnRSim6QQRTF-217">
          <mxGeometry y="125" width="210" height="10" as="geometry" />
        </mxCell>
        <mxCell id="MACJduqAwnRSim6QQRTF-223" value="" style="html=1;verticalAlign=bottom;labelBackgroundColor=none;endArrow=open;endFill=0;dashed=1;rounded=0;exitX=0.421;exitY=1.005;exitDx=0;exitDy=0;entryX=1;entryY=0.325;entryDx=0;entryDy=0;entryPerimeter=0;exitPerimeter=0;edgeStyle=orthogonalEdgeStyle;" edge="1" parent="1" source="MACJduqAwnRSim6QQRTF-217" target="MACJduqAwnRSim6QQRTF-204">
          <mxGeometry width="160" relative="1" as="geometry">
            <mxPoint x="828" y="497" as="sourcePoint" />
            <mxPoint x="828" y="581" as="targetPoint" />
          </mxGeometry>
        </mxCell>
        <mxCell id="MACJduqAwnRSim6QQRTF-224" value="" style="html=1;verticalAlign=bottom;labelBackgroundColor=none;endArrow=open;endFill=0;dashed=1;rounded=0;exitX=1;exitY=0.584;exitDx=0;exitDy=0;entryX=0.555;entryY=0.996;entryDx=0;entryDy=0;exitPerimeter=0;entryPerimeter=0;edgeStyle=orthogonalEdgeStyle;" edge="1" parent="1" source="MACJduqAwnRSim6QQRTF-204" target="MACJduqAwnRSim6QQRTF-217">
          <mxGeometry width="160" relative="1" as="geometry">
            <mxPoint x="888" y="580" as="sourcePoint" />
            <mxPoint x="888" y="497" as="targetPoint" />
          </mxGeometry>
        </mxCell>
        <mxCell id="MACJduqAwnRSim6QQRTF-225" value="" style="ellipse;html=1;fillColor=strokeColor;" vertex="1" parent="1">
          <mxGeometry x="722" y="323" width="4" height="4" as="geometry" />
        </mxCell>
        <mxCell id="MACJduqAwnRSim6QQRTF-226" value="" style="endArrow=open;html=1;rounded=0;align=center;verticalAlign=top;endFill=0;labelBackgroundColor=none;endSize=6;entryX=1;entryY=0.25;entryDx=0;entryDy=0;exitX=0.002;exitY=0.222;exitDx=0;exitDy=0;exitPerimeter=0;" edge="1" parent="1">
          <mxGeometry relative="1" as="geometry">
            <mxPoint x="648" y="325" as="targetPoint" />
            <mxPoint x="724.4199999999998" y="325.5" as="sourcePoint" />
          </mxGeometry>
        </mxCell>
        <mxCell id="MACJduqAwnRSim6QQRTF-227" value="" style="edgeStyle=orthogonalEdgeStyle;rounded=0;orthogonalLoop=1;jettySize=auto;html=1;entryX=0.002;entryY=0.279;entryDx=0;entryDy=0;entryPerimeter=0;exitX=1;exitY=0.5;exitDx=0;exitDy=0;" edge="1" parent="1" source="MACJduqAwnRSim6QQRTF-194" target="MACJduqAwnRSim6QQRTF-217">
          <mxGeometry relative="1" as="geometry">
            <mxPoint x="598" y="427" as="sourcePoint" />
            <mxPoint x="598" y="350" as="targetPoint" />
          </mxGeometry>
        </mxCell>
        <mxCell id="MACJduqAwnRSim6QQRTF-228" value="" style="html=1;verticalAlign=bottom;labelBackgroundColor=none;endArrow=open;endFill=0;dashed=1;rounded=0;exitX=0.25;exitY=1;exitDx=0;exitDy=0;" edge="1" parent="1">
          <mxGeometry width="160" relative="1" as="geometry">
            <mxPoint x="569" y="341" as="sourcePoint" />
            <mxPoint x="569" y="420" as="targetPoint" />
          </mxGeometry>
        </mxCell>
        <mxCell id="MACJduqAwnRSim6QQRTF-229" value="&lt;b&gt;&lt;font style=&quot;font-size: 14px;&quot;&gt;BRC STRUCTURE&lt;/font&gt;&lt;/b&gt;" style="text;html=1;align=center;verticalAlign=middle;resizable=0;points=[];autosize=1;strokeColor=none;fillColor=none;" vertex="1" parent="1">
          <mxGeometry x="470" y="108" width="140" height="30" as="geometry" />
        </mxCell>
      </root>
    </mxGraphModel>
  </diagram>
</mxfile>
